<?xml version="1.0" standalone="no"?>
<!DOCTYPE svg PUBLIC "-//W3C//DTD SVG 20010904//EN"
 "http://www.w3.org/TR/2001/REC-SVG-20010904/DTD/svg10.dtd">
<svg version="1.0" xmlns="http://www.w3.org/2000/svg"
 width="500.000000pt" height="500.000000pt" viewBox="0 0 500.000000 500.000000"
 preserveAspectRatio="xMidYMid meet">
<metadata>
Created by potrace 1.14, written by Peter Selinger 2001-2017
</metadata>
<g transform="translate(0.000000,500.000000) scale(0.100000,-0.100000)"
fill="#000000" stroke="none">
<path d="M2447 4968 c-45 -9 -83 -28 -116 -57 -13 -12 -33 -21 -45 -22 -73 -2
-341 -91 -468 -155 -261 -130 -330 -220 -459 -594 -22 -63 -42 -124 -44 -135
-3 -11 -9 -31 -14 -45 -29 -78 -55 -185 -78 -324 -16 -99 -5 -278 23 -353 11
-30 14 -61 10 -105 -11 -122 -19 -356 -20 -592 l-1 -238 -47 -23 c-51 -25
-158 -100 -253 -178 -107 -88 -306 -303 -350 -378 -5 -9 -24 -37 -42 -61 -180
-251 -331 -675 -368 -1028 -3 -25 -7 -65 -10 -90 -15 -139 -18 -192 -20 -365
-1 -104 0 -198 3 -207 4 -17 120 -18 2248 -18 2163 0 2244 1 2244 18 0 10 -6
41 -14 68 -8 27 -17 70 -20 95 -19 138 -58 255 -133 403 -40 80 -73 127 -120
173 -18 18 -35 45 -38 60 -24 120 -82 309 -121 398 -10 22 -18 42 -19 45 -4
13 -73 148 -90 175 -129 208 -241 352 -364 467 -57 54 -71 72 -67 90 3 13 8
50 12 83 3 33 8 71 9 85 2 14 3 32 4 40 1 9 16 21 34 28 85 31 174 112 161
147 -3 7 -26 16 -52 20 -25 4 -63 14 -83 22 -32 12 -37 18 -33 41 2 15 5 53 8
86 5 63 8 69 34 72 38 6 129 38 162 57 50 29 94 79 123 139 46 97 55 138 62
291 4 82 3 107 -7 108 -7 0 -78 2 -158 3 -80 2 -148 4 -151 5 -5 1 -8 28 -12
144 l-2 49 65 22 c57 19 243 112 274 137 6 5 47 35 91 68 82 60 118 92 170
152 31 35 67 87 63 91 -1 2 4 14 11 27 17 31 24 77 17 107 -8 32 -71 101 -110
121 -17 9 -33 19 -36 23 -14 18 -265 104 -369 126 -74 15 -141 33 -151 39 -7
4 -21 26 -32 49 -11 22 -29 58 -41 78 -12 20 -35 60 -51 90 -43 80 -86 139
-130 181 -40 37 -185 114 -261 137 -22 7 -49 16 -60 21 -29 11 -54 18 -100 25
-22 3 -47 8 -55 9 -54 11 -131 17 -241 19 -110 2 -129 5 -152 23 -22 17 -40
21 -105 20 -42 0 -94 -4 -115 -9z"/>
</g>
</svg>
